<svg width="375" height="511" viewBox="0 0 375 511" fill="none" xmlns="http://www.w3.org/2000/svg">
    <path d="M267.524 395.514C267.524 395.514 316.58 392.448 350.306 332.15C384.032 271.852 377.9 179.872 335.998 128.772C294.096 77.672 228.688 60.298 166.346 76.65C135.972 84.6114 115.716 105.266 98.2091 130.182C82.9609 151.89 65.8117 172.8 42.735 186.535C19.8831 200.128 -3.61271 210.982 -15.1511 236.818C-43.2356 299.732 -22.7241 372.907 43.7059 397.558C115.246 424.13 234.82 409.822 267.524 395.514Z" fill="#63E6BE"/>
    <path opacity="0.7" d="M267.524 395.514C267.524 395.514 316.58 392.448 350.306 332.15C384.032 271.852 377.9 179.872 335.998 128.772C294.096 77.672 228.688 60.298 166.346 76.65C135.972 84.6114 115.716 105.266 98.2091 130.182C82.9609 151.89 65.8117 172.8 42.735 186.535C19.8831 200.128 -3.61271 210.982 -15.1511 236.818C-43.2356 299.732 -22.7241 372.907 43.7059 397.558C115.246 424.13 234.82 409.822 267.524 395.514Z" fill="white"/>
    <g filter="url(#filter0_f_132:2262)">
        <path d="M178.784 446.502C275.206 446.502 353.372 439.639 353.372 431.172C353.372 422.706 275.206 415.842 178.784 415.842C82.3614 415.842 4.19556 422.706 4.19556 431.172C4.19556 439.639 82.3614 446.502 178.784 446.502Z" fill="#C3FAE8"/>
    </g>
    <path opacity="0.5" d="M178.784 446.502C275.206 446.502 353.372 439.639 353.372 431.172C353.372 422.706 275.206 415.842 178.784 415.842C82.3614 415.842 4.19556 422.706 4.19556 431.172C4.19556 439.639 82.3614 446.502 178.784 446.502Z" fill="white"/>
    <path d="M0.751221 231.279V240.344" stroke="#263238" stroke-linecap="round" stroke-linejoin="round"/>
    <path d="M5.28903 235.816H-3.77612" stroke="#263238" stroke-linecap="round" stroke-linejoin="round"/>
    <path d="M310.08 153.607V162.672" stroke="#263238" stroke-linecap="round" stroke-linejoin="round"/>
    <path d="M314.608 158.144H305.542" stroke="#263238" stroke-linecap="round" stroke-linejoin="round"/>
    <path d="M181.308 83.436V92.5012" stroke="#263238" stroke-linecap="round" stroke-linejoin="round"/>
    <path d="M185.835 87.9635H176.77" stroke="#263238" stroke-linecap="round" stroke-linejoin="round"/>
    <path d="M32.0959 332.804V341.869" stroke="#263238" stroke-linecap="round" stroke-linejoin="round"/>
    <path d="M36.6235 337.332H27.5583" stroke="#263238" stroke-linecap="round" stroke-linejoin="round"/>
    <path d="M306.022 120.933C306.025 122.417 305.586 123.869 304.763 125.104C303.94 126.338 302.769 127.302 301.399 127.871C300.028 128.44 298.52 128.59 297.064 128.302C295.608 128.014 294.27 127.3 293.22 126.251C292.17 125.203 291.455 123.866 291.164 122.411C290.874 120.955 291.022 119.446 291.59 118.075C292.157 116.704 293.119 115.532 294.352 114.707C295.586 113.882 297.037 113.442 298.521 113.442C300.509 113.442 302.415 114.231 303.822 115.635C305.228 117.04 306.02 118.945 306.022 120.933Z" stroke="#263238" stroke-linecap="round" stroke-linejoin="round"/>
    <path d="M340.086 197.583C340.104 197.818 340.074 198.054 339.996 198.276C339.919 198.498 339.797 198.702 339.637 198.874C339.477 199.047 339.284 199.185 339.068 199.279C338.852 199.373 338.62 199.422 338.384 199.422C338.149 199.422 337.916 199.373 337.701 199.279C337.485 199.185 337.292 199.047 337.132 198.874C336.972 198.702 336.85 198.498 336.772 198.276C336.695 198.054 336.665 197.818 336.683 197.583C336.716 197.155 336.91 196.754 337.225 196.463C337.541 196.171 337.955 196.008 338.384 196.008C338.814 196.008 339.228 196.171 339.544 196.463C339.859 196.754 340.053 197.155 340.086 197.583Z" stroke="#263238" stroke-linecap="round" stroke-linejoin="round"/>
    <path d="M80.1607 173.055C80.1628 173.393 80.0644 173.724 79.8781 174.006C79.6918 174.288 79.4259 174.509 79.1143 174.639C78.8026 174.77 78.4591 174.805 78.1274 174.741C77.7956 174.676 77.4905 174.514 77.2508 174.276C77.0111 174.038 76.8475 173.733 76.7809 173.402C76.7142 173.071 76.7474 172.727 76.8763 172.415C77.0051 172.102 77.2239 171.835 77.5048 171.647C77.7856 171.459 78.116 171.359 78.454 171.359C78.9049 171.359 79.3375 171.537 79.6573 171.855C79.977 172.173 80.158 172.604 80.1607 173.055V173.055Z" stroke="#263238" stroke-linecap="round" stroke-linejoin="round"/>
    <path d="M366.576 273.559V273.508H366.515V273.457C365.094 273.313 350.388 272.056 336.969 279.026C342.897 271.58 345.631 262.087 344.573 252.628C341.333 220.231 310.765 201.692 308.404 200.302V200.312H308.332H308.261C305.9 201.702 275.332 220.241 272.092 252.638C271.4 258.91 272.366 265.253 274.893 271.034C257.682 260.743 237.61 262.48 235.76 262.664V262.603V262.674H235.689V262.726C234.779 264.821 223.292 292.445 237.089 315.921C249.434 336.913 275.322 331.363 282.353 329.391C288.26 335.594 299.032 349.718 303.815 373.817H297.111L300.228 419.521H315.313L318.624 373.878H310.724C314.344 357.543 320.873 341.993 329.999 327.97C337.04 329.728 356.09 332.692 365.483 316.728C376.643 297.668 367.322 275.265 366.576 273.559ZM307.852 273.385L291.909 251.238C291.875 251.193 291.851 251.141 291.837 251.086C291.823 251.031 291.821 250.974 291.829 250.918C291.838 250.861 291.857 250.808 291.887 250.759C291.916 250.711 291.955 250.669 292.001 250.635C292.094 250.566 292.211 250.537 292.326 250.555C292.441 250.572 292.545 250.634 292.614 250.727L307.883 271.934V249.501L291.939 227.364C291.871 227.271 291.842 227.154 291.859 227.039C291.876 226.924 291.938 226.82 292.031 226.751C292.127 226.686 292.244 226.66 292.359 226.679C292.473 226.698 292.575 226.761 292.645 226.853L307.913 248.06V215.356C307.913 215.299 307.924 215.244 307.946 215.192C307.968 215.139 307.999 215.092 308.039 215.052C308.079 215.012 308.126 214.981 308.178 214.959C308.23 214.938 308.286 214.927 308.343 214.927C308.456 214.927 308.566 214.972 308.646 215.052C308.727 215.133 308.772 215.242 308.772 215.356V246.925L325.328 225.934C325.399 225.843 325.502 225.784 325.616 225.769C325.73 225.755 325.846 225.786 325.936 225.857C326.027 225.927 326.086 226.031 326.101 226.145C326.115 226.259 326.083 226.374 326.013 226.465L308.772 248.326V270.81L325.328 249.807C325.401 249.717 325.505 249.659 325.62 249.646C325.735 249.632 325.85 249.665 325.941 249.736C325.986 249.771 326.023 249.814 326.05 249.863C326.078 249.912 326.095 249.967 326.102 250.023C326.109 250.079 326.104 250.135 326.089 250.19C326.074 250.244 326.048 250.295 326.013 250.339L308.772 272.21V291.27L325.328 270.278C325.399 270.187 325.502 270.128 325.616 270.114C325.73 270.099 325.846 270.131 325.936 270.201C326.027 270.272 326.086 270.376 326.101 270.49C326.115 270.604 326.083 270.719 326.013 270.81L308.772 292.67V293.089H307.382L291.96 271.627C291.891 271.534 291.862 271.416 291.879 271.302C291.897 271.187 291.959 271.083 292.052 271.014C292.148 270.949 292.265 270.923 292.379 270.942C292.493 270.961 292.596 271.023 292.665 271.116L307.883 292.292V273.344L307.852 273.385ZM282.517 327.439L280.953 325.292L258.469 319.038C258.379 319.007 258.304 318.944 258.259 318.861C258.213 318.777 258.201 318.68 258.224 318.588C258.25 318.495 258.312 318.416 258.396 318.368C258.48 318.32 258.58 318.307 258.673 318.333L280.217 324.342L270.845 311.526L248.361 305.271C248.268 305.245 248.189 305.183 248.141 305.099C248.093 305.015 248.081 304.915 248.106 304.822C248.136 304.732 248.2 304.657 248.283 304.611C248.366 304.566 248.464 304.553 248.556 304.576L270.11 310.586L259.031 295.419L236.547 289.165C236.501 289.153 236.459 289.132 236.422 289.103C236.384 289.075 236.353 289.039 236.33 288.997C236.307 288.956 236.293 288.911 236.288 288.864C236.283 288.817 236.288 288.77 236.302 288.725C236.314 288.679 236.334 288.636 236.363 288.599C236.392 288.561 236.427 288.53 236.468 288.506C236.509 288.482 236.554 288.467 236.601 288.46C236.648 288.454 236.696 288.457 236.741 288.47L258.295 294.479L242.71 273.16C242.653 273.081 242.63 272.983 242.646 272.888C242.661 272.792 242.713 272.706 242.791 272.649C242.829 272.62 242.872 272.599 242.919 272.587C242.965 272.576 243.013 272.574 243.06 272.581C243.107 272.589 243.151 272.606 243.191 272.632C243.231 272.658 243.266 272.691 243.292 272.731L259.419 294.786L259.348 272.925C259.35 272.828 259.39 272.736 259.459 272.668C259.527 272.599 259.619 272.56 259.716 272.557C259.812 272.56 259.903 272.6 259.969 272.668C260.036 272.737 260.074 272.829 260.074 272.925L260.237 295.746L271.316 310.903L271.152 289.042C271.143 288.989 271.146 288.935 271.16 288.884C271.174 288.832 271.199 288.784 271.234 288.743C271.268 288.702 271.311 288.67 271.36 288.647C271.408 288.625 271.461 288.613 271.515 288.613C271.568 288.613 271.621 288.625 271.67 288.647C271.718 288.67 271.761 288.702 271.796 288.743C271.83 288.784 271.856 288.832 271.87 288.884C271.884 288.935 271.887 288.989 271.878 289.042L272.041 311.874L281.403 324.679L281.239 302.819C281.242 302.723 281.282 302.632 281.35 302.565C281.419 302.498 281.511 302.461 281.607 302.461C281.702 302.461 281.793 302.499 281.86 302.566C281.927 302.633 281.965 302.724 281.965 302.819L282.128 325.65L283.467 327.479L282.517 327.439ZM285.072 327.439C288.342 322.461 297.785 306.12 292.144 290.391C296.53 293.284 301.222 295.684 306.135 297.545V368.513C300.954 346.765 291.204 333.765 285.256 327.439H285.072ZM309.6 364.139V297.872C314.275 296.174 318.76 293.989 322.978 291.352C313.974 305.782 324.061 322.451 326.718 326.386C319.154 338.042 313.383 350.768 309.6 364.139ZM365.728 294.959L347.526 300.069L338.532 312.333L356.019 307.458C356.056 307.446 356.096 307.442 356.136 307.445C356.175 307.449 356.213 307.461 356.248 307.48C356.282 307.499 356.312 307.525 356.336 307.557C356.36 307.588 356.378 307.624 356.387 307.663C356.406 307.737 356.395 307.816 356.357 307.883C356.319 307.95 356.256 307.999 356.182 308.021L337.981 313.131L330.377 323.524L347.863 318.649C347.938 318.63 348.017 318.641 348.084 318.679C348.15 318.717 348.2 318.78 348.221 318.854C348.24 318.93 348.23 319.01 348.192 319.078C348.154 319.147 348.091 319.198 348.017 319.222L329.815 324.332L328.854 325.64C328.68 325.538 328.517 325.446 328.353 325.333L328.895 324.587L329.038 306.069C329.03 306.026 329.032 305.982 329.042 305.939C329.053 305.897 329.073 305.858 329.101 305.825C329.129 305.791 329.164 305.764 329.203 305.745C329.243 305.727 329.286 305.717 329.329 305.717C329.373 305.717 329.416 305.727 329.455 305.745C329.495 305.764 329.53 305.791 329.557 305.825C329.585 305.858 329.605 305.897 329.616 305.939C329.627 305.982 329.629 306.026 329.621 306.069L329.498 323.81L337.02 313.366L337.153 294.847C337.153 294.809 337.16 294.77 337.175 294.735C337.19 294.7 337.212 294.668 337.24 294.641C337.268 294.614 337.301 294.593 337.337 294.58C337.372 294.566 337.411 294.559 337.449 294.561C337.488 294.561 337.527 294.568 337.563 294.583C337.599 294.598 337.631 294.62 337.659 294.648C337.686 294.675 337.708 294.708 337.723 294.744C337.738 294.78 337.746 294.818 337.746 294.857L337.613 312.589L346.606 300.325L346.739 281.806C346.739 281.767 346.747 281.729 346.762 281.693C346.777 281.657 346.798 281.624 346.826 281.597C346.853 281.569 346.886 281.547 346.922 281.532C346.958 281.518 346.997 281.51 347.035 281.51C347.074 281.51 347.112 281.518 347.147 281.533C347.183 281.548 347.215 281.57 347.242 281.597C347.268 281.625 347.289 281.658 347.303 281.694C347.317 281.729 347.323 281.768 347.322 281.806L347.199 299.538L360.281 281.643C360.327 281.581 360.396 281.54 360.473 281.529C360.549 281.518 360.627 281.536 360.689 281.581C360.721 281.604 360.748 281.632 360.768 281.665C360.788 281.698 360.802 281.735 360.807 281.773C360.813 281.811 360.811 281.85 360.801 281.887C360.792 281.925 360.774 281.96 360.751 281.99L348.109 299.293L365.595 294.418C365.67 294.399 365.748 294.409 365.815 294.448C365.882 294.486 365.931 294.548 365.953 294.622C365.962 294.659 365.963 294.698 365.956 294.735C365.95 294.773 365.935 294.808 365.914 294.84C365.893 294.872 365.866 294.899 365.833 294.919C365.801 294.94 365.765 294.953 365.728 294.959Z" fill="#263238"/>
    <path d="M266.39 114.546H108.593C104.783 114.546 101.694 117.634 101.694 121.444V416.894C101.694 420.704 104.783 423.793 108.593 423.793H266.39C270.2 423.793 273.288 420.704 273.288 416.894V121.444C273.288 117.634 270.2 114.546 266.39 114.546Z" fill="#263238" stroke="#263238" stroke-linecap="round" stroke-linejoin="round"/>
    <path d="M260.942 114.546H103.146C99.3356 114.546 96.2471 117.634 96.2471 121.444V416.894C96.2471 420.704 99.3356 423.793 103.146 423.793H260.942C264.752 423.793 267.841 420.704 267.841 416.894V121.444C267.841 117.634 264.752 114.546 260.942 114.546Z" fill="white"/>
    <path d="M267.841 231.238L116.953 423.803H260.953C262.78 423.8 264.533 423.072 265.824 421.779C267.116 420.485 267.841 418.732 267.841 416.904V231.238Z" fill="#92E3A9"/>
    <path opacity="0.5" d="M267.841 231.238L116.953 423.803H260.953C262.78 423.8 264.533 423.072 265.824 421.779C267.116 420.485 267.841 418.732 267.841 416.904V231.238Z" fill="white"/>
    <path d="M260.942 114.546H103.146C99.3356 114.546 96.2471 117.634 96.2471 121.444V416.894C96.2471 420.704 99.3356 423.793 103.146 423.793H260.942C264.752 423.793 267.841 420.704 267.841 416.894V121.444C267.841 117.634 264.752 114.546 260.942 114.546Z" stroke="#263238" stroke-linecap="round" stroke-linejoin="round"/>
    <path d="M193.94 133.024H172.58C171.997 133.024 171.438 132.792 171.026 132.38C170.614 131.968 170.383 131.409 170.383 130.826C170.383 130.538 170.44 130.253 170.55 129.987C170.661 129.721 170.823 129.479 171.027 129.276C171.231 129.073 171.473 128.912 171.74 128.803C172.007 128.693 172.292 128.638 172.58 128.639H193.94C194.52 128.639 195.076 128.87 195.486 129.28C195.897 129.69 196.127 130.246 196.127 130.826C196.128 131.114 196.073 131.4 195.963 131.666C195.854 131.933 195.693 132.175 195.49 132.379C195.287 132.584 195.045 132.746 194.779 132.856C194.513 132.967 194.228 133.024 193.94 133.024Z" fill="#263238" stroke="#263238" stroke-linecap="round" stroke-linejoin="round"/>
    <path d="M256.997 396.158H107.07V133.279H142.605L146.601 136.59C147.996 137.752 149.753 138.388 151.568 138.389H214.268C216.15 138.381 217.965 137.692 219.378 136.447L222.996 133.279H256.997V396.158Z" fill="#263238" stroke="#263238" stroke-linecap="round" stroke-linejoin="round"/>
    <path d="M135.216 339.478H228.872" stroke="white" stroke-linecap="round" stroke-linejoin="round"/>
    <path d="M135.216 351.803H228.872" stroke="white" stroke-linecap="round" stroke-linejoin="round"/>
    <path d="M135.216 364.128H228.872" stroke="white" stroke-linecap="round" stroke-linejoin="round"/>
    <path d="M143.862 225.044C137.976 233.573 135.118 243.827 135.744 254.171C136.369 264.514 140.443 274.349 147.315 282.105C154.186 289.862 163.459 295.091 173.651 296.959C183.844 298.828 194.368 297.226 203.544 292.411C212.719 287.596 220.016 279.845 224.27 270.396C228.523 260.947 229.487 250.345 227.009 240.284C224.53 230.222 218.751 221.282 210.595 214.89C202.438 208.499 192.375 205.025 182.013 205.023C179.172 205.024 176.336 205.28 173.541 205.79" stroke="white" stroke-linecap="round" stroke-linejoin="round"/>
    <path d="M151.762 216.286C150.205 217.634 148.737 219.081 147.367 220.619" stroke="white" stroke-linecap="round" stroke-linejoin="round"/>
    <path d="M218.226 266.79C226.737 246.808 217.437 223.709 197.455 215.199C177.472 206.688 154.374 215.987 145.863 235.97C137.352 255.952 146.652 279.051 166.634 287.562C186.617 296.072 209.715 286.773 218.226 266.79Z" fill="#12B886"/>
    <path d="M163.883 247.293L178.804 264.248L203.21 229.674" stroke="#263238" stroke-width="6" stroke-linecap="round" stroke-linejoin="round"/>
    <path d="M219.419 136.447C218.006 137.692 216.191 138.381 214.309 138.389H151.588C149.773 138.388 148.016 137.752 146.621 136.59L142.625 133.279H107.07V160.168H256.997V133.279H223.036L219.419 136.447Z" fill="#12B886" stroke="#263238" stroke-linecap="round" stroke-linejoin="round"/>
    <path d="M186.837 404.262C186.839 403.586 186.64 402.925 186.266 402.362C185.892 401.799 185.359 401.36 184.735 401.1C184.111 400.841 183.423 400.772 182.76 400.904C182.097 401.035 181.488 401.36 181.01 401.838C180.532 402.316 180.207 402.926 180.075 403.589C179.944 404.252 180.012 404.939 180.272 405.563C180.532 406.187 180.971 406.72 181.534 407.095C182.097 407.469 182.758 407.668 183.434 407.666C184.336 407.663 185.2 407.303 185.837 406.666C186.475 406.028 186.834 405.164 186.837 404.262Z" fill="#263238" stroke="#263238" stroke-linecap="round" stroke-linejoin="round"/>
    <path d="M53.4968 299.712L40.1291 419.286C40.1291 419.286 30.3281 427.809 31.1866 431.253C32.0451 434.697 43.3586 429.209 44.9223 426.368C46.0319 424.003 46.8224 421.501 47.2729 418.928L75.4187 328.992L97.0647 425.438C97.0647 425.438 106.263 432.991 111.373 432.735C116.483 432.48 114.664 430.466 111.751 426.777C108.838 423.087 102.246 420.982 102.246 420.982L98.9963 296.676L53.4968 299.712Z" fill="#263238" stroke="#263238" stroke-linecap="round" stroke-linejoin="round"/>
    <path d="M98.2628 294.585L53.3528 296.868L53.6641 302.992L98.5741 300.709L98.2628 294.585Z" fill="#263238" stroke="#263238" stroke-linecap="round" stroke-linejoin="round"/>
    <path d="M81.2134 298.475C81.285 299.998 79.3534 301.326 76.8802 301.459C74.4069 301.592 72.322 300.468 72.322 298.935C72.322 297.402 74.1923 296.084 76.6553 295.961C79.1183 295.838 81.1317 296.962 81.2134 298.475Z" fill="white"/>
    <path d="M73.5177 235.642L56.6343 240.589L58.7294 297.024L98.3319 296.043L93.3241 237.707L73.5177 235.642Z" fill="white" stroke="#263238" stroke-linecap="round" stroke-linejoin="round"/>
    <path d="M66.1286 236.276L63.8598 332.579L42.3569 322.165L51.8104 291.75L45.3616 240.395L66.1286 236.276Z" fill="#12B886" stroke="#263238" stroke-linecap="round" stroke-linejoin="round"/>
    <path d="M83.2268 235.407L95.2455 330.985L115.594 318.445L103.105 289.144L104.311 237.4L83.2268 235.407Z" fill="#12B886" stroke="#263238" stroke-linecap="round" stroke-linejoin="round"/>
    <path d="M70.4312 247.058L73.7833 252.516L71.1057 290.514L77.4625 298.036L80.7534 289.001L75.6638 252.587L78.8013 247.314L74.2432 241.406L70.4312 247.058Z" fill="#263238" stroke="#263238" stroke-linecap="round" stroke-linejoin="round"/>
    <path d="M74.5806 246.333L68.2544 251.095L63.1853 238.729L66.0367 234.314L81.52 233.527L85.1787 238.463L82.1638 249.705L74.5806 246.333Z" fill="white" stroke="#263238" stroke-linecap="round" stroke-linejoin="round"/>
    <path d="M67.3245 229.562L68.745 237.421L74.5807 246.333L79.9257 235.826L79.5885 229.194L67.3245 229.562Z" fill="white" stroke="#263238" stroke-linecap="round" stroke-linejoin="round"/>
    <path d="M45.3617 240.395L16.6843 275.112L35.7446 297.678L43.4199 292.691L33.997 273.467L48.0597 263.288L45.3617 240.395Z" fill="#12B886" stroke="#263238" stroke-linecap="round" stroke-linejoin="round"/>
    <path d="M43.4199 292.691L44.5645 295.184L38.1055 298.843L37.2368 296.84L43.4199 292.691Z" fill="white" stroke="#263238" stroke-linecap="round" stroke-linejoin="round"/>
    <path d="M44.5644 295.184L51.1461 303.81L48.9795 306.477L47.4056 305.793L44.2169 308.511C44.2169 308.511 41.8868 307.857 41.5904 307.111C41.294 306.365 38.1361 304.464 38.0645 303.197C37.993 301.929 38.0645 298.843 38.0645 298.843L44.5644 295.184Z" fill="white" stroke="#263238" stroke-linecap="round" stroke-linejoin="round"/>
    <path d="M120.284 244.176C120.673 243.163 120.758 242.059 120.53 240.998C120.06 239.782 119.017 235.571 119.222 234.181C119.426 232.791 121.531 230.768 121.715 228.969C121.899 227.17 121.715 225.525 121.715 224.554C121.732 224.288 121.834 224.035 122.007 223.832C122.179 223.629 122.413 223.487 122.672 223.427C122.932 223.368 123.203 223.393 123.447 223.501C123.691 223.608 123.894 223.791 124.025 224.022C125.047 225.208 125.66 226.424 125.17 227.681C124.836 229.087 124.678 230.529 124.699 231.973C124.699 231.973 126.335 234.232 127.234 235.704C128.133 237.175 128.052 241.028 127.449 242.572C126.887 243.74 126.094 244.783 125.119 245.638L125.221 248.295L120.284 244.176Z" fill="white" stroke="#263238" stroke-linecap="round" stroke-linejoin="round"/>
    <path d="M123.269 229.848C123.269 229.848 122.553 231.953 123.81 232.433C125.067 232.914 130.208 233.629 130.259 231.974C130.31 230.318 130.412 229.49 129.585 229.531C128.757 229.572 124.904 229.531 124.904 229.531C124.904 229.531 123.115 229.439 123.269 229.848Z" fill="white" stroke="#263238" stroke-linecap="round" stroke-linejoin="round"/>
    <path d="M123.851 240.17C123.851 240.17 123.34 241.734 124.25 242.091C125.159 242.449 128.859 242.991 128.89 241.754C128.92 240.517 128.992 239.904 128.399 239.935C127.806 239.966 125.027 239.935 125.027 239.935C125.027 239.935 123.739 239.843 123.851 240.17Z" fill="white" stroke="#263238" stroke-linecap="round" stroke-linejoin="round"/>
    <path d="M123.167 236.828C123.167 236.828 122.574 238.647 123.626 239.066C124.679 239.485 128.961 240.088 129.002 238.678C129.043 237.267 129.125 236.532 128.43 236.562C127.735 236.593 124.526 236.562 124.526 236.562C124.526 236.562 123.034 236.481 123.167 236.828Z" fill="white" stroke="#263238" stroke-linecap="round" stroke-linejoin="round"/>
    <path d="M122.768 233.588C122.768 233.588 122.052 235.694 123.32 236.174C124.587 236.654 129.707 237.37 129.758 235.714C129.809 234.058 129.912 233.231 129.084 233.271C128.256 233.312 124.403 233.271 124.403 233.271C124.403 233.271 122.615 233.19 122.768 233.588Z" fill="white" stroke="#263238" stroke-linecap="round" stroke-linejoin="round"/>
    <path d="M119.702 246.271L120.499 243.062L126.038 246.363L125.108 249.848L119.702 246.271Z" fill="white" stroke="#263238" stroke-linecap="round" stroke-linejoin="round"/>
    <path d="M104.311 237.4L114.919 259.976L120.131 245.454L125.241 250.318L120.009 277.238C119.845 278.067 119.444 278.83 118.853 279.433C118.261 280.037 117.507 280.454 116.682 280.634C115.856 280.815 114.996 280.75 114.208 280.448C113.419 280.146 112.735 279.62 112.241 278.934L103.769 267.11L104.311 237.4Z" fill="#12B886" stroke="#263238" stroke-linecap="round" stroke-linejoin="round"/>
    <path d="M62.3883 220.384C62.3883 220.384 60.2421 218.095 59.9662 219.771C59.6902 221.447 60.5589 224.339 61.908 225.371C63.257 226.404 64.4425 224.697 64.4425 224.697L62.3883 220.384Z" fill="white" stroke="#263238" stroke-linecap="round" stroke-linejoin="round"/>
    <path d="M82.6748 219.352C82.6748 219.352 84.5655 216.858 85.0254 218.493C85.4853 220.128 84.8925 223.103 83.6559 224.268C82.4193 225.433 81.0601 223.849 81.0601 223.849L82.6748 219.352Z" fill="white" stroke="#263238" stroke-linecap="round" stroke-linejoin="round"/>
    <path d="M63.2466 222.735L61.2026 218.412C59.5575 216.096 58.4188 213.46 57.8607 210.675C56.8387 205.933 58.525 201.988 60.6712 200.772C61.8773 200.05 63.3015 199.782 64.6876 200.016C64.6876 200.016 65.0964 197.236 71.8416 194.906C78.5868 192.575 85.9248 196.776 85.8124 198.248C85.6999 199.719 83.9012 200.373 83.9012 200.373C83.9012 200.373 89.1543 202.315 87.2534 204.799C86.0812 206.316 84.5641 207.531 82.8281 208.345C83.2091 209.597 83.5196 210.87 83.7581 212.157C84.0239 213.802 82.542 220.875 82.542 220.875L78.9139 210.931L67.5288 211.513C67.5288 211.513 66.8543 216.337 65.6483 218.054C64.8785 219.357 64.4497 220.833 64.4015 222.346C64.4015 222.346 63.87 224.165 63.2466 222.735Z" fill="#263238" stroke="#263238" stroke-linecap="round" stroke-linejoin="round"/>
    <path d="M65.2703 204.768C65.2508 207.736 65.0357 210.699 64.6264 213.639C64.3802 215.275 63.5352 216.761 62.2554 217.809C62.2554 217.809 63.7066 224.544 65.5462 228.131C67.3858 231.718 71.2081 234.661 75.061 234.263C78.914 233.864 81.9902 229.49 82.3581 225.79C82.7261 222.091 80.9171 208.416 80.9171 208.416C80.9171 208.416 68.8779 210.532 65.2703 204.768Z" fill="white" stroke="#263238" stroke-linecap="round" stroke-linejoin="round"/>
    <path d="M66.2922 218.596C66.9059 218.232 67.5988 218.024 68.311 217.988C69.0232 217.953 69.7334 218.091 70.3802 218.391" stroke="#263238" stroke-linecap="round" stroke-linejoin="round"/>
    <path d="M66.1287 215.53C66.1287 215.53 66.3637 213.486 69.7772 213.302" stroke="#263238" stroke-linecap="round" stroke-linejoin="round"/>
    <path d="M75.2144 212.852C75.9867 212.535 76.8401 212.475 77.6494 212.679C78.4587 212.883 79.1813 213.341 79.7111 213.986" stroke="#263238" stroke-linecap="round" stroke-linejoin="round"/>
    <path d="M74.0185 216.153C74.0185 216.153 74.5602 220.241 74.5909 220.742C74.6215 221.243 76.3283 221.334 75.8684 222.377C75.4085 223.419 73.9266 224.523 72.6899 223.736" stroke="#263238" stroke-linecap="round" stroke-linejoin="round"/>
    <path d="M75.9399 227.16C75.9399 227.16 74.6419 228.417 72.0256 227.354" stroke="#263238" stroke-linecap="round" stroke-linejoin="round"/>
    <path d="M78.5256 217.461C78.5256 218.217 78.2088 218.851 77.7387 218.871C77.2686 218.892 76.8597 218.299 76.8189 217.553C76.778 216.807 77.1357 216.173 77.6058 216.143C78.0759 216.112 78.4541 216.715 78.5256 217.461Z" fill="#263238"/>
    <defs>
        <filter id="filter0_f_132:2262" x="-34.8044" y="376.842" width="427.177" height="108.66" filterUnits="userSpaceOnUse" color-interpolation-filters="sRGB">
            <feFlood flood-opacity="0" result="BackgroundImageFix"/>
            <feBlend mode="normal" in="SourceGraphic" in2="BackgroundImageFix" result="shape"/>
            <feGaussianBlur stdDeviation="19.5" result="effect1_foregroundBlur_132:2262"/>
        </filter>
    </defs>
</svg>